<mxfile host="app.diagrams.net" modified="2021-07-17T15:14:01.451Z" agent="5.0 (Macintosh; Intel Mac OS X 10_15_7) AppleWebKit/537.36 (KHTML, like Gecko) Chrome/91.0.4472.114 Safari/537.36" etag="2yKeoAsBJRTc015WR382" version="14.9.0" type="github">
  <diagram id="qkxECWxnbaYCbJM5MRTU" name="Page-1">
    <mxGraphModel dx="946" dy="557" grid="1" gridSize="10" guides="1" tooltips="1" connect="1" arrows="1" fold="1" page="1" pageScale="1" pageWidth="850" pageHeight="1100" math="0" shadow="0">
      <root>
        <mxCell id="0" />
        <mxCell id="1" parent="0" />
        <mxCell id="QcYfBSignOeAOPgkUBf1-12" value="" style="rounded=0;whiteSpace=wrap;html=1;dashed=1;" vertex="1" parent="1">
          <mxGeometry x="110" y="10" width="470" height="320" as="geometry" />
        </mxCell>
        <mxCell id="QcYfBSignOeAOPgkUBf1-4" style="edgeStyle=orthogonalEdgeStyle;rounded=0;orthogonalLoop=1;jettySize=auto;html=1;exitX=0.5;exitY=0;exitDx=0;exitDy=0;entryX=0.124;entryY=1;entryDx=0;entryDy=0;entryPerimeter=0;" edge="1" parent="1" source="QcYfBSignOeAOPgkUBf1-1" target="QcYfBSignOeAOPgkUBf1-3">
          <mxGeometry relative="1" as="geometry" />
        </mxCell>
        <mxCell id="QcYfBSignOeAOPgkUBf1-1" value="Product List&amp;nbsp;&lt;br&gt;MFE" style="whiteSpace=wrap;html=1;aspect=fixed;fillColor=#dae8fc;strokeColor=#6c8ebf;dashed=1;" vertex="1" parent="1">
          <mxGeometry x="170" y="160" width="80" height="80" as="geometry" />
        </mxCell>
        <mxCell id="QcYfBSignOeAOPgkUBf1-2" value="Cart MFE" style="whiteSpace=wrap;html=1;aspect=fixed;fillColor=#fff2cc;strokeColor=#d6b656;dashed=1;" vertex="1" parent="1">
          <mxGeometry x="420" y="160" width="80" height="80" as="geometry" />
        </mxCell>
        <mxCell id="QcYfBSignOeAOPgkUBf1-10" style="edgeStyle=orthogonalEdgeStyle;rounded=0;orthogonalLoop=1;jettySize=auto;html=1;exitX=0.873;exitY=1.033;exitDx=0;exitDy=0;entryX=0.5;entryY=0;entryDx=0;entryDy=0;exitPerimeter=0;" edge="1" parent="1" source="QcYfBSignOeAOPgkUBf1-3" target="QcYfBSignOeAOPgkUBf1-2">
          <mxGeometry relative="1" as="geometry">
            <Array as="points">
              <mxPoint x="460" y="102" />
            </Array>
          </mxGeometry>
        </mxCell>
        <mxCell id="QcYfBSignOeAOPgkUBf1-3" value="event published : {item,price}" style="rounded=1;whiteSpace=wrap;html=1;fillColor=#d5e8d4;strokeColor=#82b366;dashed=1;" vertex="1" parent="1">
          <mxGeometry x="170" y="40" width="330" height="60" as="geometry" />
        </mxCell>
        <mxCell id="QcYfBSignOeAOPgkUBf1-6" value="Team - Product" style="text;html=1;strokeColor=none;fillColor=none;align=center;verticalAlign=middle;whiteSpace=wrap;rounded=0;" vertex="1" parent="1">
          <mxGeometry x="160" y="250" width="100" height="20" as="geometry" />
        </mxCell>
        <mxCell id="QcYfBSignOeAOPgkUBf1-7" value="Team - Cart" style="text;html=1;strokeColor=none;fillColor=none;align=center;verticalAlign=middle;whiteSpace=wrap;rounded=0;" vertex="1" parent="1">
          <mxGeometry x="410" y="250" width="100" height="20" as="geometry" />
        </mxCell>
        <mxCell id="QcYfBSignOeAOPgkUBf1-8" value="dispatchEvent" style="text;html=1;strokeColor=none;fillColor=none;align=center;verticalAlign=middle;whiteSpace=wrap;rounded=0;" vertex="1" parent="1">
          <mxGeometry x="230" y="120" width="40" height="20" as="geometry" />
        </mxCell>
        <mxCell id="QcYfBSignOeAOPgkUBf1-9" value="listenToEvent" style="text;html=1;strokeColor=none;fillColor=none;align=center;verticalAlign=middle;whiteSpace=wrap;rounded=0;" vertex="1" parent="1">
          <mxGeometry x="490" y="120" width="40" height="20" as="geometry" />
        </mxCell>
      </root>
    </mxGraphModel>
  </diagram>
</mxfile>
